<?xml version="1.0" standalone="no"?>
<!DOCTYPE svg PUBLIC "-//W3C//DTD SVG 20010904//EN"
 "http://www.w3.org/TR/2001/REC-SVG-20010904/DTD/svg10.dtd">
<svg version="1.0" xmlns="http://www.w3.org/2000/svg"
 width="501.000000pt" height="501.000000pt" viewBox="0 0 501.000000 501.000000"
 preserveAspectRatio="xMidYMid meet">

<g transform="translate(0.000000,501.000000) scale(0.100000,-0.100000)"
fill="#000000" stroke="none">
<path d="M2510 4340 c-724 -99 -1204 -633 -1272 -1414 -8 -98 -8 -162 1 -260
12 -138 49 -334 76 -401 8 -22 13 -29 10 -15 -54 269 -17 573 100 815 118 245
343 465 605 592 473 229 1074 226 1543 -8 441 -220 718 -606 792 -1107 9 -58
16 -182 17 -285 2 -195 7 -196 34 -7 39 277 10 596 -78 870 -52 162 -190 423
-293 555 -136 173 -338 362 -458 429 -188 104 -294 148 -486 202 -122 35 -132
36 -326 39 -110 2 -229 0 -265 -5z"/>
<path d="M621 2884 c0 -11 3 -14 6 -6 3 7 2 16 -1 19 -3 4 -6 -2 -5 -13z"/>
<path d="M602 2778 c-80 -547 96 -1141 460 -1546 216 -241 439 -391 718 -482
177 -58 285 -74 495 -73 437 1 764 126 1042 396 254 247 408 577 454 977 21
183 -2 464 -53 653 -24 90 -36 97 -17 10 19 -86 16 -330 -4 -435 -45 -226
-158 -456 -306 -620 -93 -104 -310 -254 -459 -318 -88 -38 -312 -97 -457 -121
-102 -17 -415 -17 -520 0 -525 84 -940 364 -1152 777 -104 203 -157 403 -173
661 -6 87 -12 169 -13 183 -1 14 -8 -14 -15 -62z"/>
</g>
</svg>
