<?xml version="1.0" standalone="no"?>
<!DOCTYPE svg PUBLIC "-//W3C//DTD SVG 20010904//EN"
 "http://www.w3.org/TR/2001/REC-SVG-20010904/DTD/svg10.dtd">
<svg version="1.0" xmlns="http://www.w3.org/2000/svg"
 width="3447.000000pt" height="1420.000000pt" viewBox="0 0 3447.000000 1420.000000"
 preserveAspectRatio="xMidYMid meet">

<g transform="translate(0.000000,1420.000000) scale(0.100000,-0.100000)"
fill="#000000" stroke="none">
<path d="M7175 12549 c-1231 -113 -2329 -676 -3121 -1601 -603 -705 -964
-1535 -1081 -2488 -26 -209 -25 -822 0 -1030 114 -914 444 -1700 1009 -2396
54 -67 105 -128 115 -135 9 -8 -15 27 -54 76 -308 392 -538 878 -647 1367
-187 835 -58 1718 359 2453 229 405 514 736 895 1040 118 94 445 318 605 414
158 95 476 253 645 320 867 345 1816 418 2734 210 528 -120 1052 -346 1511
-652 847 -566 1490 -1409 1810 -2372 224 -673 283 -1356 186 -2145 -19 -149
-22 -232 -10 -225 7 5 9 1 6 -11 -16 -55 -48 -207 -44 -210 7 -8 129 388 172
559 118 468 168 886 168 1387 -1 481 -51 898 -164 1360 -176 716 -521 1441
-965 2029 -533 707 -1196 1264 -1979 1661 -381 194 -576 263 -916 325 -298 55
-421 66 -789 70 -190 2 -390 -1 -445 -6z"/>
<path d="M14175 10566 c-152 -30 -258 -88 -371 -200 -91 -91 -150 -184 -194
-303 -108 -297 -105 -732 7 -1011 43 -109 92 -183 173 -263 131 -130 262 -179
485 -179 116 0 248 19 268 39 14 14 -23 323 -39 317 -6 -2 -40 -10 -73 -17
-176 -34 -337 38 -413 186 -119 230 -118 670 2 905 34 66 123 154 183 181 63
28 196 31 264 6 50 -19 41 -35 78 151 15 74 24 140 21 147 -15 41 -262 66
-391 41z"/>
<path d="M15781 10564 c-235 -63 -403 -308 -468 -684 -25 -144 -22 -467 6
-624 56 -312 173 -512 352 -600 258 -126 559 -34 707 216 89 150 140 377 149
663 18 569 -137 933 -436 1025 -77 24 -229 26 -310 4z m207 -330 c31 -20 69
-80 92 -147 39 -112 53 -238 53 -482 0 -228 -8 -329 -39 -455 -64 -255 -235
-299 -335 -85 -97 209 -102 781 -10 1025 55 144 149 201 239 144z"/>
<path d="M20178 10570 c-456 -72 -721 -487 -695 -1086 20 -447 191 -734 502
-840 145 -49 427 -44 616 12 l49 15 0 519 0 520 -260 0 -260 0 0 -155 0 -155
85 0 85 0 0 -235 0 -235 -67 0 c-202 0 -324 175 -355 508 -26 280 32 539 150
673 102 116 308 160 475 103 26 -9 49 -15 51 -13 1 2 17 74 34 159 29 142 31
156 16 167 -49 36 -307 62 -426 43z"/>
<path d="M25840 10574 c-191 -28 -327 -105 -414 -232 -63 -92 -87 -166 -93
-285 -7 -115 6 -185 49 -272 62 -126 143 -208 325 -328 105 -69 185 -142 209
-190 22 -42 29 -129 14 -182 -16 -56 -81 -119 -142 -136 -92 -27 -276 -7 -384
41 l-44 19 -5 -22 c-3 -12 -15 -86 -28 -164 l-24 -143 56 -21 c131 -49 352
-64 496 -34 163 34 322 148 392 280 56 106 80 246 63 365 -27 193 -131 342
-321 461 -207 129 -277 198 -286 283 -8 72 4 114 49 162 75 81 218 97 362 39
37 -15 69 -25 70 -23 5 5 56 291 56 310 0 44 -265 91 -400 72z"/>
<path d="M27580 10561 c-94 -30 -142 -61 -220 -140 -113 -114 -184 -262 -231
-483 -29 -134 -37 -441 -15 -603 47 -358 173 -591 370 -684 252 -119 551 -27
695 213 206 345 212 1109 11 1452 -73 124 -203 226 -321 253 -71 17 -226 12
-289 -8z m177 -312 c135 -51 191 -279 180 -727 -6 -260 -25 -374 -79 -482 -85
-169 -233 -142 -308 57 -43 116 -55 221 -54 498 0 230 3 272 22 363 36 166 85
256 157 288 37 16 46 17 82 3z"/>
<path d="M21835 10565 c-11 -2 -65 -9 -121 -15 -55 -7 -106 -15 -112 -19 -9
-5 -11 -243 -10 -957 l3 -949 187 -3 188 -2 2 387 3 388 57 -1 c133 -3 178
-72 219 -339 24 -154 54 -310 75 -382 l15 -53 194 0 c107 0 195 3 195 8 0 4
-9 36 -20 72 -11 36 -41 166 -65 290 -52 258 -67 316 -100 381 -33 63 -70 106
-123 139 l-45 28 44 22 c57 30 157 132 191 196 43 79 61 166 61 280 0 56 -6
126 -13 155 -42 178 -167 297 -367 350 -61 16 -117 21 -258 24 -99 2 -189 2
-200 0z m325 -311 c73 -31 113 -91 130 -198 18 -112 -17 -243 -82 -303 -41
-39 -108 -63 -176 -63 l-62 0 2 287 3 288 30 7 c39 8 111 0 155 -18z"/>
<path d="M30577 10559 c-42 -5 -94 -13 -115 -17 l-37 -8 -3 -951 -2 -951 22
-6 c51 -14 365 -19 464 -6 371 46 579 257 660 670 25 131 30 436 9 584 -52
376 -216 590 -510 667 -93 24 -357 34 -488 18z m374 -305 c41 -12 66 -28 105
-68 90 -93 133 -241 141 -498 17 -485 -107 -768 -335 -768 l-62 0 0 669 c0
526 3 670 13 674 25 11 85 7 138 -9z"/>
<path d="M17430 9590 l0 -970 166 0 167 0 -7 573 c-3 314 -8 613 -11 662 l-5
90 35 -120 c52 -170 132 -384 307 -820 l153 -380 173 -3 172 -2 0 970 0 970
-166 0 -167 0 7 -452 c3 -249 12 -543 20 -653 12 -190 13 -226 2 -194 -53 154
-174 474 -313 829 -97 245 -178 451 -180 458 -4 9 -49 12 -179 12 l-174 0 0
-970z"/>
<path d="M23610 9590 l0 -970 435 0 435 0 0 165 0 165 -247 2 -248 3 -3 257
-2 258 222 2 223 3 3 158 3 157 -226 0 -225 0 0 220 0 220 235 0 235 0 0 165
0 165 -420 0 -420 0 0 -970z"/>
<path d="M32490 9590 l0 -970 438 2 437 3 3 163 2 162 -250 0 -250 0 0 260 0
260 220 0 220 0 0 160 0 160 -220 0 -220 0 0 220 0 220 230 0 230 0 0 165 0
165 -420 0 -420 0 0 -970z"/>
<path d="M9575 9129 c5 -8 30 -46 56 -85 93 -138 163 -261 244 -426 347 -704
440 -1512 263 -2288 -113 -496 -353 -989 -680 -1397 -271 -338 -662 -665
-1048 -878 -58 -32 -141 -79 -185 -105 -435 -256 -943 -446 -1450 -544 -312
-60 -440 -70 -850 -71 -399 0 -488 6 -780 56 -962 163 -1825 618 -2515 1325
-224 230 -373 416 -553 690 -404 615 -641 1280 -722 2024 -9 80 -19 264 -22
410 -5 230 -2 296 18 500 13 129 23 263 23 297 1 37 4 57 9 50 5 -7 7 3 4 25
-3 22 6 90 24 169 16 73 27 134 26 136 -8 7 -122 -369 -166 -547 -119 -477
-166 -868 -165 -1380 1 -326 13 -516 55 -805 226 -1583 1139 -3021 2481 -3907
424 -281 915 -522 1215 -597 1183 -297 2449 -106 3503 529 524 316 1005 763
1369 1270 719 1003 1004 2275 785 3500 -125 697 -417 1370 -840 1936 -47 62
-90 116 -96 120 -7 5 -8 2 -3 -7z m-8208 -511 c-3 -8 -6 -5 -6 6 -1 11 2 17 5
13 3 -3 4 -12 1 -19z m-10 -70 c-3 -7 -5 -2 -5 12 0 14 2 19 5 13 2 -7 2 -19
0 -25z m-10 -70 c-3 -7 -5 -2 -5 12 0 14 2 19 5 13 2 -7 2 -19 0 -25z m-10
-85 c-3 -10 -5 -4 -5 12 0 17 2 24 5 18 2 -7 2 -21 0 -30z m-10 -110 c-3 -10
-5 -2 -5 17 0 19 2 27 5 18 2 -10 2 -26 0 -35z m-10 -120 c-3 -10 -5 -4 -5 12
0 17 2 24 5 18 2 -7 2 -21 0 -30z m0 -550 c-3 -10 -5 -4 -5 12 0 17 2 24 5 18
2 -7 2 -21 0 -30z m10 -135 c-3 -8 -6 -5 -6 6 -1 11 2 17 5 13 3 -3 4 -12 1
-19z m10 -100 c-3 -8 -6 -5 -6 6 -1 11 2 17 5 13 3 -3 4 -12 1 -19z m1494
-2905 c13 -16 12 -17 -3 -4 -17 13 -22 21 -14 21 2 0 10 -8 17 -17z"/>
<path d="M32506 8014 c-366 -89 -596 -529 -596 -1143 0 -435 107 -801 288
-987 71 -73 142 -117 239 -150 65 -22 96 -27 188 -27 191 0 325 53 450 178
150 150 240 391 276 733 17 171 7 547 -20 688 -76 406 -253 645 -523 709 -78
18 -224 18 -302 -1z m173 -374 c44 -12 96 -62 126 -120 59 -116 85 -272 92
-555 9 -342 -21 -592 -87 -733 -48 -102 -94 -142 -165 -142 -189 0 -288 312
-272 859 12 410 80 626 217 685 42 18 46 19 89 6z"/>
<path d="M13686 7968 c-3 -24 -40 -515 -81 -1093 -41 -577 -77 -1071 -80
-1097 l-6 -48 190 0 c190 0 191 0 195 23 2 12 14 236 26 497 12 261 25 549 30
640 5 91 9 213 10 273 0 59 4 107 8 107 4 0 14 -39 21 -87 22 -157 88 -469
196 -923 57 -245 107 -455 110 -467 5 -23 8 -23 165 -23 88 0 160 3 160 6 0 3
54 231 121 507 113 472 209 914 209 965 0 12 4 22 9 22 4 0 11 -138 14 -307 5
-282 40 -1056 53 -1180 l5 -53 195 0 c148 0 194 3 194 13 1 33 -132 2225 -136
2245 l-4 22 -230 0 c-209 0 -229 -1 -234 -17 -10 -34 -195 -890 -230 -1068
-41 -207 -86 -470 -86 -502 0 -13 -4 -23 -8 -23 -5 0 -14 37 -21 83 -15 103
-81 413 -219 1037 l-107 485 -232 3 -232 2 -5 -42z"/>
<path d="M16116 8002 c-3 -5 -114 -510 -246 -1123 -133 -613 -243 -1122 -246
-1131 -5 -17 10 -18 210 -18 196 0 215 2 219 18 3 9 26 126 52 260 l47 242
204 0 203 0 7 -37 c4 -21 26 -137 49 -258 l41 -220 216 -3 215 -2 -14 72 c-8
40 -108 552 -222 1138 l-207 1065 -261 3 c-144 1 -264 -2 -267 -6z m289 -663
c19 -134 52 -354 73 -489 22 -135 37 -248 35 -252 -2 -5 -74 -8 -159 -8 -128
0 -154 2 -154 14 0 8 20 127 44 264 38 212 116 695 116 718 0 4 2 5 5 3 2 -3
20 -115 40 -250z"/>
<path d="M17370 6870 l0 -1140 197 0 196 0 -6 563 c-4 309 -11 654 -17 766 -6
112 -9 206 -7 208 2 2 19 -48 37 -109 56 -194 135 -407 342 -925 l200 -503
204 0 204 0 0 1140 0 1140 -196 0 -197 0 6 -492 c3 -271 13 -601 21 -733 9
-132 15 -260 15 -285 l-1 -45 -15 45 c-75 219 -540 1427 -575 1493 -8 15 -28
17 -208 17 l-200 0 0 -1140z"/>
<path d="M18990 7805 l0 -205 200 0 200 0 0 -935 0 -935 220 0 220 0 2 933 3
932 203 3 202 2 0 205 0 205 -625 0 -625 0 0 -205z"/>
<path d="M20507 8003 c-4 -3 -7 -516 -7 -1140 l0 -1133 515 0 515 0 0 195 0
195 -290 0 -290 0 0 305 0 305 260 0 260 0 -2 183 -3 182 -257 3 -258 2 0 260
0 260 270 0 270 0 0 195 0 195 -488 0 c-269 0 -492 -3 -495 -7z"/>
<path d="M21870 6870 l0 -1140 195 0 195 0 0 258 c0 253 -15 933 -24 1167 -5
96 -3 113 5 85 117 -371 214 -627 566 -1497 4 -10 55 -13 209 -13 l204 0 -2
1138 -3 1137 -194 3 -194 2 6 -517 c3 -285 13 -619 21 -743 22 -330 23 -328
-28 -180 -66 191 -188 511 -379 995 l-173 440 -202 3 -202 2 0 -1140z"/>
<path d="M23640 6870 l0 -1140 220 0 220 0 0 1140 0 1140 -220 0 -220 0 0
-1140z"/>
<path d="M24595 7998 c-3 -11 -165 -2222 -165 -2255 0 -10 45 -13 190 -13 105
0 190 3 190 8 0 14 40 840 50 1022 5 102 12 262 16 355 8 189 9 188 49 -45 32
-187 86 -432 203 -925 l88 -370 159 0 159 0 118 490 c99 412 141 603 216 980
5 27 10 -45 15 -215 4 -140 18 -471 32 -735 14 -264 25 -499 25 -522 l0 -43
201 0 200 0 -6 68 c-3 37 -32 513 -65 1057 -33 545 -62 1027 -65 1073 l-7 82
-228 0 c-126 0 -231 -4 -234 -8 -7 -13 -222 -1011 -256 -1192 -17 -90 -39
-220 -50 -288 -10 -69 -21 -126 -23 -128 -2 -2 -15 65 -30 149 -22 119 -212
1000 -303 1400 l-16 67 -229 0 c-175 0 -231 -3 -234 -12z"/>
<path d="M26700 6870 l0 -1140 220 0 220 0 0 1140 0 1140 -220 0 -220 0 0
-1140z"/>
<path d="M27570 6870 l0 -1140 515 0 515 0 -2 193 -3 192 -292 3 -293 2 0 305
0 305 260 0 260 0 0 185 0 185 -260 0 -260 0 0 260 0 260 275 0 275 0 -2 193
-3 192 -492 3 -493 2 0 -1140z"/>
<path d="M28930 6870 l0 -1140 195 0 195 0 0 363 c0 341 -13 908 -25 1097 -6
100 0 91 46 -65 55 -188 142 -422 341 -917 l192 -478 203 0 203 0 0 1140 0
1140 -196 0 -197 0 6 -487 c4 -269 13 -596 21 -728 24 -373 25 -368 -38 -190
-89 251 -505 1327 -537 1388 -9 15 -29 17 -209 17 l-200 0 0 -1140z"/>
<path d="M30550 7805 l0 -205 200 0 200 0 0 -935 0 -935 220 0 220 0 2 933 3
932 203 3 202 2 0 205 0 205 -625 0 -625 0 0 -205z"/>
<path d="M14085 5159 c-191 -32 -323 -150 -379 -338 -21 -70 -21 -227 -1 -306
17 -66 72 -189 106 -236 12 -17 20 -32 18 -33 -2 -2 -32 -26 -66 -53 -170
-136 -255 -328 -238 -537 19 -235 138 -399 343 -473 176 -64 441 -24 590 90
l34 26 47 -62 46 -62 208 -3 c114 -1 207 0 207 3 0 3 -58 78 -128 167 -70 90
-131 168 -135 175 -5 7 7 32 27 60 48 68 89 153 130 271 35 101 76 286 76 343
l0 29 -159 0 -159 0 -7 -87 c-4 -49 -13 -125 -21 -170 -14 -83 -50 -193 -62
-193 -11 0 -276 381 -284 408 -2 5 22 28 52 52 132 103 215 205 252 309 26 70
35 216 19 293 -49 235 -261 370 -516 327z m150 -282 c19 -19 38 -52 45 -78 17
-60 7 -173 -19 -232 -27 -62 -129 -171 -146 -157 -7 5 -27 43 -46 82 -32 70
-34 78 -34 188 0 104 2 119 25 158 45 80 118 96 175 39z m66 -1301 c46 -57 43
-64 -43 -111 -66 -36 -162 -40 -223 -8 -176 92 -214 350 -78 531 l25 33 140
-198 c77 -109 158 -220 179 -247z"/>
<path d="M16555 5116 c-321 -63 -533 -295 -620 -681 -25 -109 -32 -445 -12
-572 61 -383 251 -624 545 -689 95 -21 329 -15 410 10 50 16 53 19 48 44 -3
15 -10 72 -16 127 -6 55 -13 114 -16 131 l-6 30 -66 -14 c-244 -51 -420 71
-486 340 -23 93 -35 274 -25 402 19 271 105 443 257 518 60 30 75 33 152 32
56 0 98 -6 124 -17 22 -10 40 -16 41 -15 3 4 56 280 58 302 4 47 -245 80 -388
52z"/>
<path d="M17701 5115 c-211 -59 -377 -276 -446 -581 -46 -204 -55 -443 -24
-674 35 -261 142 -495 277 -602 198 -158 510 -139 693 42 156 155 235 409 246
792 7 219 -6 362 -47 526 -63 249 -186 416 -358 483 -74 29 -259 37 -341 14z
m176 -316 c66 -25 112 -99 143 -232 53 -225 50 -639 -7 -867 -53 -215 -179
-283 -290 -156 -61 69 -97 207 -114 435 -21 291 16 590 89 724 46 85 113 121
179 96z"/>
<path d="M24540 5109 c-47 -5 -105 -12 -130 -17 l-45 -8 -3 -951 -2 -952 47
-8 c27 -4 156 -8 288 -8 211 1 251 4 333 23 138 32 234 81 312 161 104 106
150 223 150 381 0 204 -92 354 -267 438 -65 31 -74 37 -58 46 130 77 195 147
235 253 64 171 19 388 -103 500 -122 110 -231 144 -492 148 -99 2 -218 -1
-265 -6z m414 -303 c123 -72 138 -302 28 -420 -42 -45 -98 -66 -174 -66 l-68
0 0 254 0 255 23 5 c54 11 146 -2 191 -28z m-42 -786 c56 -16 117 -68 151
-129 39 -69 48 -169 23 -255 -35 -118 -147 -191 -283 -184 l-58 3 -3 294 -2
294 67 -6 c38 -4 85 -11 105 -17z"/>
<path d="M29260 5110 c-41 -5 -93 -13 -115 -17 l-40 -9 -3 -951 -2 -952 47 -8
c27 -4 140 -8 253 -8 176 1 217 4 292 23 257 64 418 219 507 488 50 150 65
264 65 489 -1 286 -30 441 -117 610 -82 159 -243 281 -422 321 -84 18 -358 26
-465 14z m410 -326 c93 -51 155 -161 187 -335 23 -127 23 -425 -1 -562 -47
-281 -152 -416 -323 -417 l-63 0 0 669 c0 760 -11 683 92 676 38 -2 73 -12
108 -31z"/>
<path d="M32354 5109 c-45 -5 -99 -12 -120 -17 l-39 -8 -3 -951 -2 -951 27 -6
c64 -13 371 -18 454 -7 210 28 316 76 440 200 73 72 94 101 132 181 82 170
117 352 117 615 0 249 -30 423 -100 570 -91 195 -219 301 -426 356 -92 24
-344 34 -480 18z m365 -305 c166 -49 250 -259 251 -624 0 -462 -119 -710 -342
-710 l-58 0 0 669 c0 526 3 670 13 674 25 11 85 7 136 -9z"/>
<path d="M18900 4140 l0 -970 163 2 162 3 0 340 c0 187 -3 480 -7 650 l-8 310
35 -113 c58 -188 144 -417 305 -815 l153 -377 171 2 171 3 3 968 2 967 -165 0
-165 0 0 -382 c0 -211 5 -459 10 -553 5 -93 12 -217 15 -275 l6 -105 -78 210
c-43 116 -157 411 -253 657 l-175 448 -172 0 -173 0 0 -970z"/>
<path d="M20590 4140 l0 -970 185 0 185 0 0 400 0 400 220 0 220 0 0 160 0
160 -220 0 -220 0 0 245 0 245 235 0 235 0 0 165 0 165 -420 0 -420 0 0 -970z"/>
<path d="M21920 4140 l0 -970 188 2 187 3 3 968 2 967 -190 0 -190 0 0 -970z"/>
<path d="M22907 4153 c-114 -527 -207 -964 -207 -970 0 -10 43 -13 180 -13
178 0 180 0 185 23 3 12 21 105 40 207 20 102 38 193 41 203 5 16 20 17 177
15 l172 -3 42 -220 c23 -121 42 -221 42 -222 1 -2 82 -3 181 -3 119 0 180 4
180 11 0 5 -83 439 -185 963 -102 525 -185 956 -185 960 0 3 -103 6 -228 6
l-228 0 -207 -957z m442 487 c12 -96 97 -651 107 -702 l6 -28 -136 0 c-116 0
-136 2 -136 15 0 9 20 127 44 263 24 136 54 318 67 405 12 86 26 154 30 150 3
-5 12 -51 18 -103z"/>
<path d="M25960 4140 l0 -970 185 0 185 0 0 970 0 970 -185 0 -185 0 0 -970z"/>
<path d="M26880 4140 l0 -970 435 0 435 0 0 160 0 160 -247 2 -248 3 -3 808
-2 807 -185 0 -185 0 0 -970z"/>
<path d="M28180 4140 l0 -970 185 0 185 0 0 970 0 970 -185 0 -185 0 0 -970z"/>
<path d="M30940 5104 c0 -4 -92 -432 -205 -953 -113 -520 -205 -954 -205 -964
0 -15 16 -17 180 -17 l179 0 7 38 c4 20 23 120 43 222 l37 185 172 3 c94 1
172 1 172 0 1 -2 20 -102 43 -223 l42 -220 184 -3 183 -2 -4 22 c-2 13 -87
449 -188 971 l-184 947 -228 0 c-126 0 -228 -3 -228 -6z m234 -439 c7 -67 103
-697 111 -732 l5 -23 -138 0 -139 0 19 103 c25 138 83 486 104 626 18 119 27
125 38 26z"/>
</g>
</svg>
