<?xml version="1.0" standalone="no"?>
<!DOCTYPE svg PUBLIC "-//W3C//DTD SVG 20010904//EN"
 "http://www.w3.org/TR/2001/REC-SVG-20010904/DTD/svg10.dtd">
<svg version="1.0" xmlns="http://www.w3.org/2000/svg"
 width="512.000000pt" height="512.000000pt" viewBox="0 0 512.000000 512.000000"
 preserveAspectRatio="xMidYMid meet">

<g transform="translate(0.000000,512.000000) scale(0.100000,-0.100000)"
fill="#000000" stroke="none">
<path d="M2419 5091 c-16 -16 -29 -36 -29 -44 0 -9 -29 -21 -87 -35 -254 -62
-443 -242 -578 -549 -80 -183 -144 -444 -160 -653 -3 -41 -8 -90 -11 -107 l-5
-33 -140 0 c-220 0 -223 -3 -217 -287 l3 -175 28 -24 28 -24 1483 0 1483 0 24
26 c23 25 24 31 27 209 4 204 -5 247 -53 265 -15 6 -89 10 -165 10 l-139 0 -6
58 c-27 264 -53 405 -105 567 -37 114 -109 273 -163 357 -125 194 -280 311
-479 360 -64 15 -88 26 -88 37 -1 21 -20 45 -47 59 -15 8 -107 12 -298 12
l-277 0 -29 -29z m481 -571 l0 -430 85 0 85 0 0 381 0 382 43 -7 c68 -11 197
-80 257 -139 143 -139 231 -312 299 -585 28 -111 57 -300 63 -404 l3 -48 -757
0 -758 0 0 -85 0 -85 935 0 935 0 0 -85 0 -85 -1360 0 -1360 0 0 85 0 85 340
0 340 0 0 85 0 85 -161 0 -162 0 6 89 c20 283 102 574 213 766 67 114 187 231
284 278 41 20 94 39 118 43 l42 7 0 -382 0 -381 85 0 85 0 0 430 0 430 170 0
170 0 0 -430z"/>
<path d="M1395 3045 c-25 -24 -25 -24 -25 -237 l0 -213 -84 -36 -85 -36 -138
139 c-76 77 -151 146 -166 154 -51 27 -80 8 -285 -200 -251 -253 -248 -221
-43 -430 l149 -151 -18 -35 c-10 -19 -23 -54 -30 -77 l-13 -42 -218 -3 c-212
-3 -219 -4 -241 -26 -23 -22 -23 -26 -26 -302 -3 -318 -1 -331 66 -349 20 -6
123 -11 227 -11 l190 0 31 -78 30 -77 -148 -151 c-202 -207 -206 -171 55 -432
214 -213 229 -224 282 -194 11 6 82 73 158 150 l138 139 82 -33 82 -33 5 -223
c3 -123 7 -224 8 -225 1 -1 15 -9 32 -18 24 -12 77 -15 304 -15 l275 0 28 24
28 24 3 217 3 216 27 11 c15 6 50 21 78 33 l52 23 138 -139 c152 -152 186
-175 231 -159 33 13 387 361 409 404 10 17 13 38 9 55 -4 15 -68 88 -152 173
-109 109 -144 151 -140 165 3 10 17 45 31 78 l25 60 216 5 217 5 24 28 24 28
0 288 0 288 -26 24 c-25 23 -30 24 -241 29 l-215 5 -30 78 -31 78 140 142 c78
78 146 153 153 165 6 13 9 36 5 50 -7 30 -363 394 -407 418 -49 25 -75 9 -230
-144 l-147 -145 -78 31 -78 30 -5 215 c-5 211 -6 216 -29 241 l-24 26 -289 0
-289 0 -24 -25z m485 -350 c0 -235 -2 -230 91 -260 30 -9 98 -37 152 -63 79
-37 102 -44 122 -36 13 5 89 71 168 146 l144 137 119 -120 119 -119 -142 -143
c-79 -79 -144 -153 -148 -167 -4 -17 6 -49 33 -105 21 -44 49 -111 62 -149 36
-110 26 -106 265 -106 l205 0 0 -170 0 -170 -187 0 c-247 0 -244 1 -293 -135
-20 -55 -49 -124 -64 -154 -19 -37 -26 -61 -21 -80 4 -15 65 -85 148 -168
l142 -143 -120 -120 -120 -120 -135 134 c-74 74 -145 139 -157 145 -34 17 -54
14 -139 -27 -43 -22 -109 -49 -147 -61 -38 -13 -73 -32 -82 -44 -12 -17 -15
-60 -15 -224 l0 -203 -169 0 -170 0 -3 204 c-4 238 -1 232 -107 267 -36 12
-102 39 -145 61 -44 21 -91 38 -105 38 -18 0 -61 -37 -171 -145 l-146 -145
-117 118 c-64 64 -117 122 -117 128 0 6 50 58 112 115 123 115 168 170 168
206 0 13 -14 51 -30 84 -17 33 -44 97 -61 143 -45 125 -34 120 -275 124 l-204
3 2 167 3 167 206 5 c150 4 210 9 222 18 9 8 26 44 38 80 12 37 39 103 61 146
41 85 44 105 27 139 -6 12 -70 82 -142 154 l-132 133 120 120 120 120 140
-139 c82 -82 151 -142 166 -146 19 -5 43 2 80 21 30 15 99 44 154 63 136 49
135 46 135 294 l0 187 170 0 170 0 0 -205z"/>
<path d="M1565 2204 c-38 -8 -112 -36 -164 -61 -77 -37 -108 -59 -170 -122
-85 -86 -142 -175 -172 -271 -79 -255 -15 -517 171 -700 269 -264 688 -262
955 5 123 123 189 262 201 430 25 318 -178 610 -490 707 -85 26 -242 32 -331
12z m248 -169 c322 -68 498 -431 350 -724 -128 -254 -426 -356 -678 -232 -316
156 -386 570 -138 816 129 127 293 177 466 140z"/>
<path d="M3879 3057 c-30 -23 -39 -56 -39 -139 l0 -82 -65 64 c-100 99 -102
98 -280 -80 -177 -177 -177 -178 -85 -274 33 -35 60 -66 60 -69 0 -4 -39 -7
-87 -7 -138 -1 -143 -10 -143 -251 0 -242 11 -259 163 -259 l70 0 -61 -64
c-53 -55 -62 -70 -62 -101 0 -34 11 -48 128 -167 128 -131 163 -158 202 -158
13 0 49 27 91 67 l69 66 0 -82 c0 -85 15 -133 45 -145 9 -3 106 -6 216 -6 199
0 200 0 224 25 23 22 25 32 25 116 l0 92 69 -66 c42 -40 78 -67 91 -67 39 0
74 27 203 158 117 119 127 132 127 166 0 32 -8 47 -61 101 l-60 63 90 3 c137
6 135 3 139 236 4 203 1 224 -28 253 -17 17 -34 20 -110 20 -49 0 -90 4 -90 8
0 4 27 34 60 67 53 52 60 64 60 98 0 37 -8 48 -131 173 -179 182 -190 184
-301 76 l-58 -56 0 92 c0 85 -2 95 -25 117 -24 25 -25 25 -227 25 -144 -1
-208 -4 -219 -13z m301 -271 c0 -98 3 -117 20 -139 24 -30 110 -62 141 -52 12
4 57 41 101 83 l79 76 57 -57 56 -56 -82 -84 c-91 -94 -96 -109 -63 -183 30
-66 49 -74 178 -74 l113 0 0 -80 0 -80 -100 0 c-131 0 -163 -13 -190 -75 -33
-77 -29 -88 62 -181 l82 -84 -59 -60 -59 -60 -81 79 c-44 43 -91 81 -105 84
-32 8 -124 -33 -139 -62 -6 -11 -11 -69 -11 -130 l0 -111 -85 0 -85 0 0 111
c0 61 -5 119 -10 130 -15 27 -83 59 -126 59 -32 0 -46 -9 -118 -80 l-82 -79
-56 56 -57 57 79 83 c90 92 98 119 61 192 -32 61 -42 66 -168 70 l-113 3 0 79
0 79 108 0 c122 0 140 7 172 70 37 72 30 93 -62 186 l-82 84 59 60 59 60 87
-85 c92 -91 104 -96 167 -70 77 33 82 44 82 177 l0 118 85 0 85 0 0 -114z"/>
<path d="M3973 2539 c-157 -61 -249 -240 -209 -401 61 -238 339 -339 537 -194
206 151 172 476 -61 585 -76 35 -192 40 -267 10z m197 -171 c103 -53 126 -175
49 -263 -36 -41 -86 -59 -146 -52 -52 6 -88 29 -121 78 -20 29 -23 44 -20 94
5 74 33 119 92 146 54 25 93 24 146 -3z"/>
</g>
</svg>
